<?xml version="1.0" encoding="UTF-8"?>
<svg xmlns="http://www.w3.org/2000/svg" viewBox="0 0 1000 1000">
  <defs>
    <style>
      .cls-1 {
        fill: #000;
        stroke-width: 0px;
      }

      .cls-2 {
        fill: none;
        stroke: #000;
        stroke-linecap: round;
        stroke-linejoin: round;
        stroke-width: 9px;
      }
    </style>
  </defs>
  <g id="Symbole">
    <g id="SternMix">
      <g id="RayV">
        <path class="cls-1" d="M249.54,625c-4.39-41.59-5.39-83.26-5.54-125,0-20.83.37-41.67,1.18-62.5.85-20.83,2.05-41.67,4.35-62.5.03-.25.26-.44.51-.41,5.48,41.15,5.48,83.69,5.95,125.41-.14,41.74-1.14,83.41-5.54,125-.03.25-.26.44-.51.41-.22-.02-.39-.2-.41-.41h0Z"/>
      </g>
      <g id="RayH">
        <path class="cls-1" d="M125,499.58c37.4-4.12,74.95-4.54,112.5-5.02,15.03-.25,30.02.1,45,1.72,7.5.68,15,1.53,22.5,3.3.42.08.44.76,0,.85-7.5,1.77-15,2.63-22.5,3.3-22.44,2.47-44.98,1.76-67.5,1.49-30.05-.93-60.06-1.25-90-4.79-.23-.03-.4-.24-.37-.48.02-.2.18-.35.37-.37h0Z"/>
      </g>
      <g id="RayMed2">
        <path class="cls-1" d="M195.89,553.67c11.61-13.46,24.69-27.89,36.76-41.02,5.62-5.82,12.97-14.64,19.13-19.77,7.11-5.86,14.28-11.65,21.89-17,.14-.1.34-.07.44.08.08.11.07.25,0,.36-5.35,7.61-11.14,14.79-17,21.89-1.48,1.76-3.02,3.46-4.66,5.06-7.22,6.85-17.87,16.6-25.25,23.37-9.87,8.97-20.82,18.8-30.87,27.46-.26.24-.69-.16-.44-.44h0Z"/>
      </g>
      <g id="RayMed1">
        <path class="cls-1" d="M196.33,445.89c13.46,11.61,27.89,24.69,41.02,36.76,5.82,5.62,14.64,12.97,19.77,19.13,5.86,7.11,11.65,14.28,17,21.89.1.14.07.34-.08.44-.11.08-.25.07-.36,0-7.61-5.35-14.79-11.14-21.89-17-1.76-1.48-3.46-3.02-5.06-4.66-6.85-7.22-16.6-17.87-23.37-25.25-8.97-9.87-18.8-20.82-27.46-30.87-.24-.26.16-.69.44-.44h0Z"/>
      </g>
      <g id="RaySmall2">
        <path class="cls-1" d="M203.71,518.9c11.02-5.99,22.26-11.53,33.58-16.93,3.77-1.78,7.55-3.54,11.37-5.21,1.77-.77,3.84.03,4.61,1.81.8,1.81-.09,3.94-1.93,4.66-3.88,1.52-7.8,2.95-11.72,4.36-7.87,2.81-15.77,5.49-23.72,8.06-3.98,1.28-7.97,2.54-11.99,3.71-.27.08-.46-.32-.19-.46h0Z"/>
      </g>
      <g id="RaySmall1">
        <path class="cls-1" d="M230.64,546.1c3.55-12.03,7.58-23.9,11.77-35.71,1.41-3.93,2.84-7.84,4.36-11.72.7-1.8,2.74-2.69,4.54-1.98,1.85.72,2.73,2.85,1.93,4.66-1.67,3.82-3.43,7.6-5.21,11.37-3.58,7.55-7.27,15.04-11.07,22.47-1.91,3.72-3.84,7.43-5.86,11.1-.13.25-.55.09-.46-.19h0Z"/>
      </g>
      <g id="RaySmall4">
        <path class="cls-1" d="M231.1,453.71c5.99,11.02,11.53,22.26,16.93,33.58,1.78,3.77,3.54,7.55,5.21,11.37.77,1.77-.03,3.84-1.81,4.61-1.81.8-3.94-.09-4.66-1.93-1.52-3.88-2.95-7.8-4.36-11.72-2.81-7.87-5.49-15.77-8.06-23.72-1.28-3.98-2.54-7.97-3.71-11.99-.08-.27.32-.46.46-.19h0Z"/>
      </g>
      <g id="RaySmall3">
        <path class="cls-1" d="M203.9,480.64c12.03,3.55,23.9,7.58,35.71,11.77,3.92,1.41,7.84,2.84,11.72,4.36,1.8.7,2.69,2.74,1.98,4.54-.72,1.85-2.85,2.73-4.66,1.93-3.82-1.67-7.6-3.43-11.37-5.21-7.55-3.58-15.04-7.27-22.47-11.07-3.72-1.91-7.43-3.84-11.1-5.86-.25-.13-.09-.55.19-.46h0Z"/>
      </g>
    </g>
    <g id="Planet">
      <path class="cls-1" d="M633.16,712.26c-60.61,41.21-139.85,52.13-209.85,30.98-51.95-15.76-97.77-47.99-130.11-91.6-6.62-8.89-13.13-19.01-18.56-28.67-3.93-7.15-7.93-15.53-11.24-23.05-1.15-3-3.65-9.06-4.72-11.93-1.35-3.96-2.82-8.21-4.11-12.15-1.4-4.84-3.44-11.66-4.47-16.51-1.65-6.42-3.05-14.42-4.15-20.97-.44-4.15-1.21-8.6-1.61-12.73-.28-3.08-.76-9.83-.98-12.79-.07-2.66-.28-10.06-.35-12.83,0,0,.23-8.55.23-8.55.02-4.87.74-12.16,1.1-17.07.4-4.1,1.14-8.61,1.61-12.73,1.59-9.59,3.59-19.92,6.26-29.26,1.71-6.43,4.28-14.14,6.47-20.38,1.01-2.88,3.64-9.03,4.72-11.93,1.22-2.53,4.1-9.18,5.32-11.67,3.05-6.06,6.65-12.92,10.22-18.77,2.83-4.84,6.1-9.73,9.25-14.36,1.57-2.08,5.88-8.33,7.57-10.33,9.48-12.34,20.35-23.9,31.85-34.39,27.47-24.61,60.43-43.09,95.69-53.82,7.88-2.39,16.64-4.4,24.72-6.06,8.09-1.51,16.97-2.71,25.17-3.52,55.92-5.04,113.45,9.06,159.97,40.57.25.17.31.5.14.75-.16.24-.47.3-.72.16-9.58-5.57-19.46-10.58-29.64-14.86-55.48-23.72-119.41-26.4-176.63-7.48-47.65,15.65-90.22,46.33-120.28,86.46-1.58,1.9-5.51,7.79-7.05,9.91-4.35,6.41-8.81,13.98-12.58,20.8-1.85,3.4-3.72,7.37-5.54,10.81-1.04,2.36-3.91,8.59-4.99,11.08-1.13,2.75-3.37,8.67-4.41,11.31-1.17,3.78-2.69,7.77-3.84,11.52-.81,2.82-2.54,8.97-3.26,11.7-.79,3.86-1.92,8-2.67,11.84-1.46,7.72-2.74,16.24-3.54,24.01-.2,2.83-.71,9.37-.87,12.11-.08,2.6-.2,9.46-.29,12.14.08,2.62.21,9.59.28,12.14.42,6.29.93,13.92,1.85,20.15,12.47,98.58,86.54,181.6,182.85,205.99,53.03,13.78,110.53,9.47,160.98-12.07,10.18-4.28,20.06-9.29,29.64-14.86.26-.15.59-.06.74.19.14.25.07.56-.16.72h0Z"/>
    </g>
    <g id="Ringe">
      <path class="cls-1" d="M909.77,90.23c-43.9-43.9-127.91-41.89-236.57,5.65-44.43,19.44-90.87,45.55-137.78,77.19,25.46-14.11,50.58-26.06,74.97-35.73,22.51-12.59,44.71-23.72,66.42-33.22,51.43-22.5,97.22-34.68,136.08-36.19,2.72-.11,5.39-.16,8.02-.16,35.63,0,63.36,9.68,82.5,28.82,20.55,20.56,30.2,51.01,28.66,90.52-1.51,38.86-13.69,84.64-36.19,136.08-9.5,21.71-20.63,43.91-33.22,66.42-9.67,24.4-21.62,49.51-35.73,74.97,31.65-46.91,57.75-93.35,77.19-137.78,47.54-108.66,49.54-192.67,5.65-236.57Z"/>
      <path class="cls-1" d="M389.61,862.66c-22.51,12.59-44.71,23.72-66.42,33.22-51.43,22.5-97.22,34.68-136.08,36.19-39.51,1.55-69.97-8.11-90.52-28.66-20.56-20.56-30.2-51.01-28.66-90.52,1.51-38.86,13.69-84.64,36.19-136.08,9.5-21.71,20.63-43.91,33.22-66.42,9.67-24.4,21.62-49.51,35.73-74.97-31.65,46.91-57.76,93.36-77.19,137.78-47.54,108.66-49.54,192.67-5.65,236.57,21.03,21.03,51.26,31.53,89.01,31.53,41.04,0,90.96-12.41,147.56-37.17,44.43-19.44,90.87-45.54,137.78-77.19-25.46,14.11-50.57,26.06-74.97,35.73Z"/>
    </g>
  </g>
  <g id="Text">
    <g id="TextSpace">
      <g id="E">
        <path id="E-2" data-name="E" class="cls-2" d="M785,570h53.33"/>
        <path id="C" class="cls-2" d="M849,626h-36c-15.46,0-28-12.54-28-28v-56c0-15.46,12.54-28,28-28h36"/>
      </g>
      <path id="C-2" data-name="C" class="cls-2" d="M760,626h-36c-15.46,0-28-12.54-28-28v-56c0-15.46,12.54-28,28-28h36"/>
      <g id="A">
        <path id="C-3" data-name="C" class="cls-2" d="M607,626v-84c0-15.46,12.54-28,28-28h8c15.46,0,28,12.54,28,28v84"/>
        <line class="cls-2" x1="607" y1="570" x2="671" y2="570"/>
      </g>
      <path id="P" class="cls-2" d="M582,542h0c0-15.46-12.54-28-28-28h-36v112-56h36c15.46,0,28-12.54,28-28Z"/>
      <path id="S" class="cls-2" d="M493,514h-36c-15.46,0-28,12.54-28,28h0c0,15.46,12.54,28,28,28h8c15.46,0,28,12.54,28,28h0c0,15.46-12.54,28-28,28h-36"/>
    </g>
    <g id="TextWÜ">
      <polyline id="W" class="cls-2" points="509 374 509 486 469 453.92 429 486 429 374"/>
      <g>
        <g id="_Ü" data-name="Ü">
          <line id="UPunkt" class="cls-2" x1="580.25" y1="394" x2="580.25" y2="374"/>
        </g>
        <path id="W-2" data-name="W" class="cls-2" d="M620.25,374v77c0,19.33-15.67,35-35,35h-10c-19.33,0-35-15.67-35-35v-77"/>
      </g>
    </g>
  </g>
</svg>